<svg id="visual" viewBox="0 0 900 600" width="900" height="600" xmlns="http://www.w3.org/2000/svg" xmlns:xlink="http://www.w3.org/1999/xlink" version="1.1"><rect x="0" y="0" width="900" height="600" fill="#001220"></rect><defs><linearGradient id="grad1_0" x1="33.3%" y1="100%" x2="100%" y2="0%"><stop offset="20%" stop-color="#fbae3c" stop-opacity="1"></stop><stop offset="80%" stop-color="#fbae3c" stop-opacity="1"></stop></linearGradient></defs><defs><linearGradient id="grad1_1" x1="33.3%" y1="100%" x2="100%" y2="0%"><stop offset="20%" stop-color="#fbae3c" stop-opacity="1"></stop><stop offset="80%" stop-color="#f48350" stop-opacity="1"></stop></linearGradient></defs><defs><linearGradient id="grad1_2" x1="33.3%" y1="100%" x2="100%" y2="0%"><stop offset="20%" stop-color="#d96162" stop-opacity="1"></stop><stop offset="80%" stop-color="#f48350" stop-opacity="1"></stop></linearGradient></defs><defs><linearGradient id="grad1_3" x1="33.3%" y1="100%" x2="100%" y2="0%"><stop offset="20%" stop-color="#d96162" stop-opacity="1"></stop><stop offset="80%" stop-color="#af4b6d" stop-opacity="1"></stop></linearGradient></defs><defs><linearGradient id="grad1_4" x1="33.3%" y1="100%" x2="100%" y2="0%"><stop offset="20%" stop-color="#7c3e6b" stop-opacity="1"></stop><stop offset="80%" stop-color="#af4b6d" stop-opacity="1"></stop></linearGradient></defs><defs><linearGradient id="grad1_5" x1="33.3%" y1="100%" x2="100%" y2="0%"><stop offset="20%" stop-color="#7c3e6b" stop-opacity="1"></stop><stop offset="80%" stop-color="#49335c" stop-opacity="1"></stop></linearGradient></defs><defs><linearGradient id="grad1_6" x1="33.3%" y1="100%" x2="100%" y2="0%"><stop offset="20%" stop-color="#1d2540" stop-opacity="1"></stop><stop offset="80%" stop-color="#49335c" stop-opacity="1"></stop></linearGradient></defs><defs><linearGradient id="grad1_7" x1="33.3%" y1="100%" x2="100%" y2="0%"><stop offset="20%" stop-color="#1d2540" stop-opacity="1"></stop><stop offset="80%" stop-color="#001220" stop-opacity="1"></stop></linearGradient></defs><defs><linearGradient id="grad2_0" x1="0%" y1="100%" x2="66.7%" y2="0%"><stop offset="20%" stop-color="#fbae3c" stop-opacity="1"></stop><stop offset="80%" stop-color="#fbae3c" stop-opacity="1"></stop></linearGradient></defs><defs><linearGradient id="grad2_1" x1="0%" y1="100%" x2="66.7%" y2="0%"><stop offset="20%" stop-color="#f48350" stop-opacity="1"></stop><stop offset="80%" stop-color="#fbae3c" stop-opacity="1"></stop></linearGradient></defs><defs><linearGradient id="grad2_2" x1="0%" y1="100%" x2="66.7%" y2="0%"><stop offset="20%" stop-color="#f48350" stop-opacity="1"></stop><stop offset="80%" stop-color="#d96162" stop-opacity="1"></stop></linearGradient></defs><defs><linearGradient id="grad2_3" x1="0%" y1="100%" x2="66.7%" y2="0%"><stop offset="20%" stop-color="#af4b6d" stop-opacity="1"></stop><stop offset="80%" stop-color="#d96162" stop-opacity="1"></stop></linearGradient></defs><defs><linearGradient id="grad2_4" x1="0%" y1="100%" x2="66.7%" y2="0%"><stop offset="20%" stop-color="#af4b6d" stop-opacity="1"></stop><stop offset="80%" stop-color="#7c3e6b" stop-opacity="1"></stop></linearGradient></defs><defs><linearGradient id="grad2_5" x1="0%" y1="100%" x2="66.7%" y2="0%"><stop offset="20%" stop-color="#49335c" stop-opacity="1"></stop><stop offset="80%" stop-color="#7c3e6b" stop-opacity="1"></stop></linearGradient></defs><defs><linearGradient id="grad2_6" x1="0%" y1="100%" x2="66.7%" y2="0%"><stop offset="20%" stop-color="#49335c" stop-opacity="1"></stop><stop offset="80%" stop-color="#1d2540" stop-opacity="1"></stop></linearGradient></defs><defs><linearGradient id="grad2_7" x1="0%" y1="100%" x2="66.7%" y2="0%"><stop offset="20%" stop-color="#001220" stop-opacity="1"></stop><stop offset="80%" stop-color="#1d2540" stop-opacity="1"></stop></linearGradient></defs><g transform="translate(900, 600)"><path d="M-210 0C-208.5 -39.1 -207 -78.3 -187.3 -108.2C-167.7 -138 -129.8 -158.7 -95.5 -165.4C-61.2 -172.2 -30.6 -165.1 0 -158L0 0Z" fill="#0c1c30"></path><path d="M-183.7 0C-182.5 -34.3 -181.2 -68.5 -163.9 -94.6C-146.7 -120.8 -113.5 -138.8 -83.6 -144.7C-53.6 -150.7 -26.8 -144.5 0 -138.2L0 0Z" fill="#312c4f"></path><path d="M-157.5 0C-156.4 -29.4 -155.3 -58.7 -140.5 -81.1C-125.7 -103.5 -97.3 -119 -71.6 -124.1C-45.9 -129.1 -23 -123.8 0 -118.5L0 0Z" fill="#623965"></path><path d="M-131.2 0C-130.3 -24.5 -129.4 -48.9 -117.1 -67.6C-104.8 -86.3 -81.1 -99.2 -59.7 -103.4C-38.3 -107.6 -19.1 -103.2 0 -98.7L0 0Z" fill="#96446e"></path><path d="M-105 0C-104.3 -19.6 -103.5 -39.1 -93.7 -54.1C-83.8 -69 -64.9 -79.3 -47.8 -82.7C-30.6 -86.1 -15.3 -82.5 0 -79L0 0Z" fill="#c55469"></path><path d="M-78.7 0C-78.2 -14.7 -77.6 -29.4 -70.3 -40.6C-62.9 -51.8 -48.7 -59.5 -35.8 -62C-23 -64.6 -11.5 -61.9 0 -59.2L0 0Z" fill="#e9705a"></path><path d="M-52.5 0C-52.1 -9.8 -51.8 -19.6 -46.8 -27C-41.9 -34.5 -32.4 -39.7 -23.9 -41.4C-15.3 -43 -7.7 -41.3 0 -39.5L0 0Z" fill="#fa9845"></path><path d="M-26.2 0C-26.1 -4.9 -25.9 -9.8 -23.4 -13.5C-21 -17.3 -16.2 -19.8 -11.9 -20.7C-7.7 -21.5 -3.8 -20.6 0 -19.7L0 0Z" fill="#fbae3c"></path></g><g transform="translate(0, 0)"><path d="M216.3 0C177.4 22.9 138.5 45.8 117.8 68C97.1 90.2 94.6 111.7 78 135.1C61.4 158.5 30.7 183.7 0 209L0 0Z" fill="#0c1c30"></path><path d="M189.3 0C155.2 20 121.2 40.1 103.1 59.5C84.9 78.9 82.8 97.8 68.3 118.2C53.7 138.7 26.9 160.8 0 182.9L0 0Z" fill="#312c4f"></path><path d="M162.2 0C133.1 17.2 103.9 34.3 88.3 51C72.8 67.7 70.9 83.8 58.5 101.3C46.1 118.9 23 137.8 0 156.8L0 0Z" fill="#623965"></path><path d="M135.2 0C110.9 14.3 86.6 28.6 73.6 42.5C60.7 56.4 59.1 69.8 48.8 84.4C38.4 99.1 19.2 114.8 0 130.6L0 0Z" fill="#96446e"></path><path d="M108.2 0C88.7 11.4 69.2 22.9 58.9 34C48.5 45.1 47.3 55.9 39 67.5C30.7 79.2 15.4 91.9 0 104.5L0 0Z" fill="#c55469"></path><path d="M81.1 0C66.5 8.6 51.9 17.2 44.2 25.5C36.4 33.8 35.5 41.9 29.3 50.7C23 59.4 11.5 68.9 0 78.4L0 0Z" fill="#e9705a"></path><path d="M54.1 0C44.4 5.7 34.6 11.4 29.4 17C24.3 22.6 23.6 27.9 19.5 33.8C15.4 39.6 7.7 45.9 0 52.3L0 0Z" fill="#fa9845"></path><path d="M27 0C22.2 2.9 17.3 5.7 14.7 8.5C12.1 11.3 11.8 14 9.8 16.9C7.7 19.8 3.8 23 0 26.1L0 0Z" fill="#fbae3c"></path></g></svg>